Coordinates
version=1
nRows=6
nColumns=36
inDegrees=yes

Units are S.I. units (second, meters, Newtons, ...)
If the header above contains a line with 'inDegrees', this indicates whether rotational values are in degrees (yes) or radians (no).

endheader
time	pelvis_tilt	pelvis_list	pelvis_rotation	pelvis_tx	pelvis_ty	pelvis_tz	hip_flexion_r	hip_adduction_r	hip_rotation_r	knee_angle_r	knee_angle_r_beta	ankle_angle_r	subtalar_angle_r	mtp_angle_r	hip_flexion_l	hip_adduction_l	hip_rotation_l	knee_angle_l	knee_angle_l_beta	ankle_angle_l	subtalar_angle_l	mtp_angle_l	lumbar_extension	lumbar_bending	lumbar_rotation	arm_flex_r	arm_add_r	arm_rot_r	elbow_flex_r	pro_sup_r	arm_flex_l	arm_add_l	arm_rot_l	elbow_flex_l	pro_sup_l
      0.00000000	      3.23538973	     -0.52005591	      1.03811717	      0.68168933	      1.04848851	      0.81253852	     21.68672982	     -2.02364492	     -4.45463757	     14.99239633	      0.26166668	      9.25383575	     -0.88261048	     -7.26208580	    -10.12683619	      0.02255704	      1.23130343	      9.95538727	      0.17375429	     23.81941637	     -2.72212610	     -7.26208580	    -17.39577069	      2.57861192	     -2.03189679	      0.45387599	     -8.45590454	    -20.35456533	     19.51369110	     89.76032075	     25.06962873	    -11.81146654	      6.19737267	     45.08047505	     87.72272731
      0.01666670	      3.90891531	     -0.29814197	      0.92817149	      0.68765776	      1.04500026	      0.81476356	     21.20345317	     -1.87525631	     -6.09241769	     11.84636555	      0.20675808	     10.02512122	      0.46084205	     -7.28073079	    -12.24236990	      0.37548364	      1.09109394	     10.04305166	      0.17528432	     22.24425392	     -4.76232132	     -7.28073079	    -18.23098193	      2.57755681	     -1.90176115	      0.01526464	     -7.07493441	    -23.46135689	     21.58542279	     86.64256975	     24.40566104	    -11.60603636	      4.25801720	     48.97985517	     84.69581421
      0.03333330	      2.26721757	      0.20314505	      0.85581419	      0.68977391	      1.03994999	      0.81766148	     22.80419727	     -2.09832738	     -5.37959664	      7.48454614	      0.13062997	      9.05696103	      1.01088901	     -7.28091926	    -12.13100803	      0.71816327	      0.66418298	      9.65593899	      0.16852793	     21.43100397	     -3.80020955	     -7.28091926	    -15.81543483	      2.43481507	     -2.22745457	     -0.45865742	     -6.82611649	    -23.34137694	     21.01219513	     84.57777114	     23.89055468	    -11.43187844	      3.04432284	     49.86049387	     82.08524410
      0.05000000	      1.42042536	      0.03355279	      1.02625547	      0.68794000	      1.03460876	      0.81964601	     23.98693459	     -1.86457734	     -5.27580390	      5.65420219	      0.09868444	     10.59004561	      2.46870919	     -7.29025114	    -12.35188056	      0.27873101	     -0.47877302	     10.04188872	      0.17526402	     20.99067758	     -2.77504782	     -7.29025114	    -14.60569839	      2.89227801	     -2.17806577	     -1.08346353	     -6.95854701	    -22.77263597	     21.03782804	     83.64171651	     24.09672957	    -10.99914250	      2.42027044	     50.97084628	     80.69328923
      0.06666670	      0.54340922	     -0.42685268	      0.83912326	      0.68630226	      1.02857768	      0.82263870	     25.40660138	     -1.25453985	     -5.36193476	      5.82985844	      0.10175022	     11.03522024	      3.08622247	     -7.30440746	    -12.32281864	     -0.54323390	     -2.36882931	     11.32641814	      0.19768329	     20.29251404	     -2.17823144	     -7.30440746	    -13.28647235	      3.44871442	     -1.96328030	     -1.40834117	     -7.37254029	    -21.41645748	     20.25104025	     82.42217335	     24.46932721	    -10.61932441	      1.95346495	     51.83532322	     78.93703565
      0.08333330	     -0.22059930	     -1.36898623	      0.63638010	      0.68725775	      1.02378009	      0.82705758	     26.67300920	     -0.19704846	     -5.91771302	      7.70711593	      0.13451455	     10.22683074	      2.14004809	     -7.32503305	    -12.22506537	     -2.12647234	     -4.59825384	     13.59756783	      0.23732233	     18.87965119	     -1.72534272	     -7.32503305	    -12.13650458	      4.46632679	     -1.77113112	     -1.71681493	     -7.97131083	    -19.86012588	     19.24892314	     81.34440092	     24.83739916	    -10.30232367	      1.59008318	     52.75238922	     77.41551374
